HIERARCHY
ROOT Hips
{
  OFFSET 5.72205e-005 65.662 3.42586
  CHANNELS 6 Xposition Yposition Zposition Zrotation Xrotation Yrotation
  JOINT Chest
  {
    OFFSET 0 8.7983 -4.7612
    CHANNELS 6 Xposition Yposition Zposition Zrotation Xrotation Yrotation
    JOINT Chest2
    {
      OFFSET 0 8.0291 0.4195
      CHANNELS 6 Xposition Yposition Zposition Zrotation Xrotation Yrotation
      JOINT Chest3
      {
        OFFSET 0 9.9351 -2.2114
        CHANNELS 6 Xposition Yposition Zposition Zrotation Xrotation Yrotation
        JOINT Neck
        {
          OFFSET 0 22.3885 -0.4656
          CHANNELS 6 Xposition Yposition Zposition Zrotation Xrotation Yrotation
          JOINT Head
          {
            OFFSET -0.0001 12.643 3.4389
            CHANNELS 6 Xposition Yposition Zposition Zrotation Xrotation Yrotation
            End Site
            {
              OFFSET 0.0001 17.6655 0.5274
            }
          }
        }
        JOINT LeftCollar
        {
          OFFSET 2.2603 21.606 7.4023
          CHANNELS 6 Xposition Yposition Zposition Zrotation Xrotation Yrotation
          JOINT LeftShoulder
          {
            OFFSET 13.5163 -1.1332 -5.0146
            CHANNELS 6 Xposition Yposition Zposition Zrotation Xrotation Yrotation
            JOINT LeftElbow
            {
              OFFSET -0.0995 -28.05 -0.2431
              CHANNELS 6 Xposition Yposition Zposition Zrotation Xrotation Yrotation
              JOINT LeftWrist
              {
                OFFSET 0.0679 -23.3996 -0.1402
                CHANNELS 6 Xposition Yposition Zposition Zrotation Xrotation Yrotation
                JOINT LeftFinger1
                {
                  OFFSET 0.7932 -9.069 2.5189
                  CHANNELS 6 Xposition Yposition Zposition Zrotation Xrotation Yrotation
                  JOINT LeftFinger11
                  {
                    OFFSET -0.8272 -3.3923 0.5977
                    CHANNELS 6 Xposition Yposition Zposition Zrotation Xrotation Yrotation
                    JOINT LeftFinger12
                    {
                      OFFSET -0.5649 -2.3158 0.4082
                      CHANNELS 6 Xposition Yposition Zposition Zrotation Xrotation Yrotation
                      End Site
                      {
                        OFFSET -0.4919 -1.6479 0.2673
                      }
                    }
                  }
                }
                JOINT LeftFinger2
                {
                  OFFSET 0.9159 -9.2044 0.2193
                  CHANNELS 6 Xposition Yposition Zposition Zrotation Xrotation Yrotation
                  JOINT LeftFinger21
                  {
                    OFFSET 0.0117 -4.1944 -0.0248
                    CHANNELS 6 Xposition Yposition Zposition Zrotation Xrotation Yrotation
                    JOINT LeftFinger22
                    {
                      OFFSET 0.0071 -2.3249 -0.0142
                      CHANNELS 6 Xposition Yposition Zposition Zrotation Xrotation Yrotation
                      End Site
                      {
                        OFFSET -0.1475 -2.0882 0.0028
                      }
                    }
                  }
                }
                JOINT LeftFinger3
                {
                  OFFSET 0.6113 -8.7231 -2.0637
                  CHANNELS 6 Xposition Yposition Zposition Zrotation Xrotation Yrotation
                  JOINT LeftFinger31
                  {
                    OFFSET -0.1927 -3.8059 -0.2383
                    CHANNELS 6 Xposition Yposition Zposition Zrotation Xrotation Yrotation
                    JOINT LeftFinger32
                    {
                      OFFSET -0.1091 -2.1688 -0.1362
                      CHANNELS 6 Xposition Yposition Zposition Zrotation Xrotation Yrotation
                      End Site
                      {
                        OFFSET -0.2358 -1.9176 -0.0906
                      }
                    }
                  }
                }
                JOINT LeftFinger4
                {
                  OFFSET -0.6151 -8.0947 -3.5641
                  CHANNELS 6 Xposition Yposition Zposition Zrotation Xrotation Yrotation
                  JOINT LeftFinger41
                  {
                    OFFSET -0.4882 -2.341 -0.6462
                    CHANNELS 6 Xposition Yposition Zposition Zrotation Xrotation Yrotation
                    JOINT LeftFinger42
                    {
                      OFFSET -0.3575 -1.7167 -0.4742
                      CHANNELS 6 Xposition Yposition Zposition Zrotation Xrotation Yrotation
                      End Site
                      {
                        OFFSET -0.4187 -1.5237 -0.3496
                      }
                    }
                  }
                }
                JOINT LeftFinger0
                {
                  OFFSET -1.42 -1.8761 1.4223
                  CHANNELS 6 Xposition Yposition Zposition Zrotation Xrotation Yrotation
                  JOINT LeftFinger01
                  {
                    OFFSET -1.1471 -3.4929 2.6334
                    CHANNELS 6 Xposition Yposition Zposition Zrotation Xrotation Yrotation
                    JOINT LeftFinger02
                    {
                      OFFSET -0.823 -2.3 1.6571
                      CHANNELS 6 Xposition Yposition Zposition Zrotation Xrotation Yrotation
                      End Site
                      {
                        OFFSET -0.5822 -1.6914 1.1582
                      }
                    }
                  }
                }
              }
            }
          }
        }
        JOINT RightCollar
        {
          OFFSET -2.2603 21.606 7.4023
          CHANNELS 6 Xposition Yposition Zposition Zrotation Xrotation Yrotation
          JOINT RightShoulder
          {
            OFFSET -13.5187 -1.1334 -5.0155
            CHANNELS 6 Xposition Yposition Zposition Zrotation Xrotation Yrotation
            JOINT RightElbow
            {
              OFFSET 0.0994 -28.0499 -0.2431
              CHANNELS 6 Xposition Yposition Zposition Zrotation Xrotation Yrotation
              JOINT RightWrist
              {
                OFFSET -0.0679 -23.3996 -0.1402
                CHANNELS 6 Xposition Yposition Zposition Zrotation Xrotation Yrotation
                JOINT RightFinger1
                {
                  OFFSET -0.7932 -9.0691 2.5189
                  CHANNELS 6 Xposition Yposition Zposition Zrotation Xrotation Yrotation
                  JOINT RightFinger11
                  {
                    OFFSET 0.8272 -3.3923 0.5977
                    CHANNELS 6 Xposition Yposition Zposition Zrotation Xrotation Yrotation
                    JOINT RightFinger12
                    {
                      OFFSET 0.565 -2.3158 0.4082
                      CHANNELS 6 Xposition Yposition Zposition Zrotation Xrotation Yrotation
                      End Site
                      {
                        OFFSET 0.4919 -1.6479 0.2673
                      }
                    }
                  }
                }
                JOINT RightFinger2
                {
                  OFFSET -0.916 -9.2044 0.2193
                  CHANNELS 6 Xposition Yposition Zposition Zrotation Xrotation Yrotation
                  JOINT RightFinger21
                  {
                    OFFSET -0.0117 -4.1944 -0.0248
                    CHANNELS 6 Xposition Yposition Zposition Zrotation Xrotation Yrotation
                    JOINT RightFinger22
                    {
                      OFFSET -0.0071 -2.3249 -0.0142
                      CHANNELS 6 Xposition Yposition Zposition Zrotation Xrotation Yrotation
                      End Site
                      {
                        OFFSET 0.1475 -2.0882 0.0028
                      }
                    }
                  }
                }
                JOINT RightFinger3
                {
                  OFFSET -0.6113 -8.7231 -2.0637
                  CHANNELS 6 Xposition Yposition Zposition Zrotation Xrotation Yrotation
                  JOINT RightFinger31
                  {
                    OFFSET 0.1927 -3.8059 -0.2383
                    CHANNELS 6 Xposition Yposition Zposition Zrotation Xrotation Yrotation
                    JOINT RightFinger32
                    {
                      OFFSET 0.1091 -2.1688 -0.1362
                      CHANNELS 6 Xposition Yposition Zposition Zrotation Xrotation Yrotation
                      End Site
                      {
                        OFFSET 0.2358 -1.9176 -0.0906
                      }
                    }
                  }
                }
                JOINT RightFinger4
                {
                  OFFSET 0.6151 -8.0947 -3.564
                  CHANNELS 6 Xposition Yposition Zposition Zrotation Xrotation Yrotation
                  JOINT RightFinger41
                  {
                    OFFSET 0.4882 -2.341 -0.6462
                    CHANNELS 6 Xposition Yposition Zposition Zrotation Xrotation Yrotation
                    JOINT RightFinger42
                    {
                      OFFSET 0.3574 -1.7166 -0.4742
                      CHANNELS 6 Xposition Yposition Zposition Zrotation Xrotation Yrotation
                      End Site
                      {
                        OFFSET 0.4187 -1.5237 -0.3496
                      }
                    }
                  }
                }
                JOINT RightFinger0
                {
                  OFFSET 1.4199 -1.8761 1.4221
                  CHANNELS 6 Xposition Yposition Zposition Zrotation Xrotation Yrotation
                  JOINT RightFinger01
                  {
                    OFFSET 1.1472 -3.4929 2.6336
                    CHANNELS 6 Xposition Yposition Zposition Zrotation Xrotation Yrotation
                    JOINT RightFinger02
                    {
                      OFFSET 0.8229 -2.3 1.6571
                      CHANNELS 6 Xposition Yposition Zposition Zrotation Xrotation Yrotation
                      End Site
                      {
                        OFFSET 0.5822 -1.6914 1.1582
                      }
                    }
                  }
                }
              }
            }
          }
        }
      }
    }
  }
  JOINT RightHip
  {
    OFFSET -9.412 3.9771 -0.7758
    CHANNELS 6 Xposition Yposition Zposition Zrotation Xrotation Yrotation
    JOINT RightKnee
    {
      OFFSET -0.7531 -40.938 0
      CHANNELS 6 Xposition Yposition Zposition Zrotation Xrotation Yrotation
      JOINT RightAnkle
      {
        OFFSET 0 -40.1986 0
        CHANNELS 6 Xposition Yposition Zposition Zrotation Xrotation Yrotation
        JOINT RightToe
        {
          OFFSET 0 -4.4182 9.239
          CHANNELS 6 Xposition Yposition Zposition Zrotation Xrotation Yrotation
          End Site
          {
            OFFSET 0 0 6.1981
          }
        }
      }
    }
  }
  JOINT LeftHip
  {
    OFFSET 9.4119 3.9773 -0.7758
    CHANNELS 6 Xposition Yposition Zposition Zrotation Xrotation Yrotation
    JOINT LeftKnee
    {
      OFFSET 0.7532 -40.9383 0
      CHANNELS 6 Xposition Yposition Zposition Zrotation Xrotation Yrotation
      JOINT LeftAnkle
      {
        OFFSET 0 -40.1986 0
        CHANNELS 6 Xposition Yposition Zposition Zrotation Xrotation Yrotation
        JOINT LeftToe
        {
          OFFSET 0 -4.4182 9.239
          CHANNELS 6 Xposition Yposition Zposition Zrotation Xrotation Yrotation
          End Site
          {
            OFFSET 0 0 6.1981
          }
        }
      }
    }
  }
}
MOTION
Frames:	4
Frame Time:	0.0333333
-39.8635 24.2934 -17.3149 -180 -13.5596 -180 0 8.7983 -4.7612 -0.127525 14.7683 -0.0812926 7.10543e-015 8.0291 0.4195 -0.24544 29.537 -0.134278 7.10543e-015 9.9351 -2.2114 -0.245439 29.5368 -0.134278 0 22.3885 -0.4656 6.82467e-006 25.5971 7.95253e-006 -0.0001 12.643 3.4389 9.96812e-008 17.5488 -1.37717e-007 2.2603 21.606 7.4023 14.9646 -5.19632 -12.4786 13.5163 -1.1332 -5.0146 21.9415 26.7563 14.9332 -0.0995 -28.05 -0.2431 -21.1822 -28.2698 -43.5676 0.0679 -23.3996 -0.1402 -0.0986665 28.0542 -37.4592 0.7932 -9.069 2.5189 -5.00538e-006 -6.46158e-006 -2.02411e-006 -0.8272 -3.3923 0.5977 -2.38542e-015 1.59028e-014 3.18055e-015 -0.5649 -2.3158 0.4082 3.65777e-006 5.27643e-006 -4.77528e-006 0.9159 -9.2044 0.2193 -5.00538e-006 -6.46158e-006 -2.02411e-006 0.0117 -4.1944 -0.0248 -0.0128345 0.00233846 8.89968e-005 0.0071 -2.3249 -0.0142 -3.18055e-015 6.36111e-015 7.95139e-016 0.6113 -8.7231 -2.0637 -5.00538e-006 -6.46158e-006 -2.02411e-006 -0.1927 -3.8059 -0.2383 -0.0160418 0.00300261 0.00085976 -0.1091 -2.1688 -0.1362 -1.31186e-006 5.49937e-008 -1.06841e-006 -0.6151 -8.0947 -3.5641 -5.00538e-006 -6.46158e-006 -2.02411e-006 -0.4882 -2.341 -0.6462 -0.0125817 0.00311594 0.00282726 -0.3575 -1.7167 -0.4742 1.59028e-015 0 -5.56597e-015 -1.42 -1.8761 1.4223 -5.00538e-006 -6.46158e-006 -2.02411e-006 -1.1471 -3.4929 2.6334 -2.38542e-015 1.59028e-014 3.18055e-015 -0.823 -2.3 1.6571 3.65777e-006 5.27643e-006 -4.77528e-006 -2.2603 21.606 7.4023 -16.2874 -4.90068 7.04311 -13.5187 -1.1334 -5.0155 -23.5723 26.2077 -9.4531 0.0994 -28.0499 -0.2431 21.0667 -27.443 43.0972 -0.0679 -23.3996 -0.1402 -1.05207 27.3314 38.4242 -0.7932 -9.0691 2.5189 -2.38542e-015 1.27222e-014 -3.97569e-015 0.8272 -3.3923 0.5977 2.38542e-015 6.36111e-015 -6.36111e-015 0.565 -2.3158 0.4082 2.38542e-015 9.54166e-015 -2.38542e-015 -0.916 -9.2044 0.2193 -2.38542e-015 1.27222e-014 -3.97569e-015 -0.0117 -4.1944 -0.0248 0.0129688 0.00232628 -8.6604e-005 -0.0071 -2.3249 -0.0142 1.93807e-008 -7.26675e-006 2.96422e-006 -0.6113 -8.7231 -2.0637 -2.38542e-015 1.27222e-014 -3.97569e-015 0.1927 -3.8059 -0.2383 0.0163241 0.0030381 -0.000874141 0.1091 -2.1688 -0.1362 1.59028e-015 -6.36111e-015 -5.56597e-015 0.6151 -8.0947 -3.564 -2.38542e-015 1.27222e-014 -3.97569e-015 0.4882 -2.341 -0.6462 0.0145671 0.003674 -0.00326145 0.3574 -1.7166 -0.4742 3.53113e-031 -1.27222e-014 1.59028e-015 1.4199 -1.8761 1.4221 -2.38542e-015 1.27222e-014 -3.97569e-015 1.1472 -3.4929 2.6336 2.38542e-015 6.36111e-015 -6.36111e-015 0.8229 -2.3 1.6571 2.38542e-015 9.54166e-015 -2.38542e-015 -9.412 3.9771 -0.7758 -149.587 -43.4555 -162.538 -0.7531 -40.938 -3.55271e-015 -16.8933 39.2568 15.9937 7.10543e-015 -40.1986 -3.55271e-015 -8.66901 12.143 2.77994 0 -4.4182 9.239 2.84448e-006 2.38959e-006 -5.25463e-006 9.4119 3.9773 -0.7758 146.025 -53.648 156.368 0.7532 -40.9383 0 9.696 15.2449 -2.24617 7.10543e-015 -40.1986 -1.77636e-015 5.47613 21.9732 -8.33219 0 -4.4182 9.239 -1.06752e-006 9.94552e-007 -1.32186e-006 
-39.862 24.2963 -17.2156 -180 -13.9459 -180 0 8.7983 -4.7612 -0.125652 14.6285 -0.0820994 7.10543e-015 8.0291 0.4195 -0.241242 29.2572 -0.13678 0 9.9351 -2.2114 -0.241241 29.2571 -0.136779 0 22.3885 -0.4656 6.33088e-006 25.3307 7.37721e-006 -0.0001 12.643 3.4389 2.03319e-007 17.2489 -5.25084e-008 2.2603 21.606 7.4023 14.4751 -4.96622 -12.3076 13.5163 -1.1332 -5.0146 22.3526 26.7307 14.7794 -0.0995 -28.05 -0.2431 -20.6676 -28.0452 -43.3036 0.0679 -23.3996 -0.1402 -0.0337549 27.8895 -37.6779 0.7932 -9.069 2.5189 -7.95139e-016 9.54166e-015 5.56597e-015 -0.8272 -3.3923 0.5977 3.8377e-006 -3.80826e-006 -3.47213e-006 -0.5649 -2.3158 0.4082 -5.14624e-006 2.16691e-006 2.39976e-006 0.9159 -9.2044 0.2193 -7.95139e-016 9.54166e-015 5.56597e-015 0.0117 -4.1944 -0.0248 -0.0128169 0.00232747 8.42387e-005 0.0071 -2.3249 -0.0142 3.18055e-015 -1.27222e-014 -7.95139e-016 0.6113 -8.7231 -2.0637 -7.95139e-016 9.54166e-015 5.56597e-015 -0.1927 -3.8059 -0.2383 -0.0160431 0.00299727 0.000854169 -0.1091 -2.1688 -0.1362 -6.07176e-006 -8.78629e-006 -8.64021e-007 -0.6151 -8.0947 -3.5641 -7.95139e-016 9.54166e-015 5.56597e-015 -0.4882 -2.341 -0.6462 -0.0125854 0.00312522 0.00282699 -0.3575 -1.7167 -0.4742 -6.36111e-015 6.36111e-015 -4.77083e-015 -1.42 -1.8761 1.4223 -7.95139e-016 9.54166e-015 5.56597e-015 -1.1471 -3.4929 2.6334 3.8377e-006 -3.80826e-006 -3.47213e-006 -0.823 -2.3 1.6571 -5.14624e-006 2.16691e-006 2.39976e-006 -2.2603 21.606 7.4023 -15.7806 -4.67166 6.87197 -13.5187 -1.1334 -5.0155 -24.004 26.1318 -9.30074 0.0994 -28.0499 -0.2431 20.5389 -27.2815 42.8425 -0.0679 -23.3996 -0.1402 -1.09935 27.1543 38.6297 -0.7932 -9.0691 2.5189 1.32417e-031 9.54166e-015 -7.95139e-016 0.8272 -3.3923 0.5977 0 0 -1.59028e-015 0.565 -2.3158 0.4082 -2.38542e-015 6.36111e-015 -1.59028e-015 -0.916 -9.2044 0.2193 1.32417e-031 9.54166e-015 -7.95139e-016 -0.0117 -4.1944 -0.0248 0.0129338 0.00231526 -8.6824e-005 -0.0071 -2.3249 -0.0142 -9.09098e-007 2.36561e-006 3.37098e-006 -0.6113 -8.7231 -2.0637 1.32417e-031 9.54166e-015 -7.95139e-016 0.1927 -3.8059 -0.2383 0.0163214 0.00303548 -0.000870566 0.1091 -2.1688 -0.1362 1.27642e-006 4.63725e-007 1.11579e-006 0.6151 -8.0947 -3.564 1.32417e-031 9.54166e-015 -7.95139e-016 0.4882 -2.341 -0.6462 0.0145629 0.00367671 -0.00325497 0.3574 -1.7166 -0.4742 -8.74653e-015 -6.36111e-015 5.56597e-015 1.4199 -1.8761 1.4221 1.32417e-031 9.54166e-015 -7.95139e-016 1.1472 -3.4929 2.6336 0 0 -1.59028e-015 0.8229 -2.3 1.6571 -2.38542e-015 6.36111e-015 -1.59028e-015 -9.412 3.9771 -0.7758 -149.746 -43.154 -162.639 -0.7531 -40.938 3.55271e-015 -16.8902 39.2517 15.9918 0 -40.1986 -3.55271e-015 -8.6063 12.1973 2.64487 -1.42109e-014 -4.4182 9.239 -1.55023e-006 1.55673e-005 -2.16727e-006 9.4119 3.9773 -0.7758 146.087 -53.3635 156.409 0.7532 -40.9383 0 9.69548 15.2343 -2.24459 -7.10543e-015 -40.1986 0 5.45066 22.0568 -8.18457 7.10543e-015 -4.4182 9.239 -7.30396e-007 8.30635e-007 -2.10873e-006 
-39.8605 24.2989 -17.1163 180 -14.3322 180 0 8.7983 -4.7612 -0.123782 14.4885 -0.082898 0 8.0291 0.4195 -0.23707 28.9773 -0.139245 -7.10543e-015 9.9351 -2.2114 -0.237069 28.9771 -0.139245 -1.42109e-014 22.3885 -0.4656 6.0626e-006 25.0641 7.49815e-006 -0.0001 12.643 3.4389 6.52228e-008 16.9491 3.11264e-008 2.2603 21.606 7.4023 13.9849 -4.73749 -12.1346 13.5163 -1.1332 -5.0146 22.7637 26.704 14.6258 -0.0995 -28.05 -0.2431 -20.155 -27.8183 -43.0422 0.0679 -23.3996 -0.1402 0.0303205 27.7244 -37.8961 0.7932 -9.069 2.5189 6.36111e-015 3.18055e-015 7.15625e-015 -0.8272 -3.3923 0.5977 1.59028e-015 1.27222e-014 -0 -0.5649 -2.3158 0.4082 -1.76556e-031 6.36111e-015 1.59028e-015 0.9159 -9.2044 0.2193 6.36111e-015 3.18055e-015 7.15625e-015 0.0117 -4.1944 -0.0248 -0.0128309 0.00232943 8.8779e-005 0.0071 -2.3249 -0.0142 1.38266e-006 3.87983e-007 2.02436e-006 0.6113 -8.7231 -2.0637 6.36111e-015 3.18055e-015 7.15625e-015 -0.1927 -3.8059 -0.2383 -0.0160492 0.00300006 0.000861613 -0.1091 -2.1688 -0.1362 -1.30526e-006 3.03529e-007 -1.07642e-006 -0.6151 -8.0947 -3.5641 6.36111e-015 3.18055e-015 7.15625e-015 -0.4882 -2.341 -0.6462 -0.0125858 0.00312219 0.00282926 -0.3575 -1.7167 -0.4742 3.85082e-007 3.22341e-006 -2.18443e-006 -1.42 -1.8761 1.4223 6.36111e-015 3.18055e-015 7.15625e-015 -1.1471 -3.4929 2.6334 1.59028e-015 1.27222e-014 -0 -0.823 -2.3 1.6571 -1.76556e-031 6.36111e-015 1.59028e-015 -2.2603 21.606 7.4023 -15.2729 -4.44403 6.69874 -13.5187 -1.1334 -5.0155 -24.4354 26.0548 -9.14909 0.0994 -28.0499 -0.2431 20.0125 -27.1178 42.5898 -0.0679 -23.3996 -0.1402 -1.14584 26.9771 38.8349 -0.7932 -9.0691 2.5189 6.20825e-007 7.9939e-006 -4.20297e-006 0.8272 -3.3923 0.5977 4.42867e-006 -3.7961e-006 2.09166e-006 0.565 -2.3158 0.4082 3.97569e-015 6.36111e-015 -4.77083e-015 -0.916 -9.2044 0.2193 6.20825e-007 7.9939e-006 -4.20297e-006 -0.0117 -4.1944 -0.0248 0.0129665 0.00230456 -8.35587e-005 -0.0071 -2.3249 -0.0142 2.38542e-015 0 -3.97569e-015 -0.6113 -8.7231 -2.0637 6.20825e-007 7.9939e-006 -4.20297e-006 0.1927 -3.8059 -0.2383 0.0163378 0.00302323 -0.000869436 0.1091 -2.1688 -0.1362 -3.18055e-015 -1.59028e-014 2.38542e-015 0.6151 -8.0947 -3.564 6.20825e-007 7.9939e-006 -4.20297e-006 0.4882 -2.341 -0.6462 0.014597 0.00366942 -0.00326108 0.3574 -1.7166 -0.4742 -7.06225e-031 -1.27222e-014 -3.18055e-015 1.4199 -1.8761 1.4221 6.20825e-007 7.9939e-006 -4.20297e-006 1.1472 -3.4929 2.6336 4.42867e-006 -3.7961e-006 2.09166e-006 0.8229 -2.3 1.6571 3.97569e-015 6.36111e-015 -4.77083e-015 -9.412 3.9771 -0.7758 -149.903 -42.8523 -162.738 -0.7531 -40.938 -3.55271e-015 -16.8873 39.2468 15.9901 0 -40.1986 0 -8.54339 12.2514 2.50963 -1.42109e-014 -4.4182 9.239 -3.4024e-007 1.43696e-005 -4.42631e-006 9.4119 3.9773 -0.7758 146.149 -53.0788 156.449 0.7532 -40.9383 -3.55271e-015 9.69498 15.2236 -2.24298 0 -40.1986 0 5.42496 22.1403 -8.03679 0 -4.4182 9.239 -2.4467e-006 -7.87746e-007 -1.86562e-006 
-39.8591 24.301 -17.0168 180 -14.7187 180 -7.10543e-015 8.7983 -4.7612 -0.121916 14.3484 -0.0836884 0 8.0291 0.4195 -0.232924 28.697 -0.141676 0 9.9351 -2.2114 -0.232923 28.6969 -0.141676 -7.10543e-015 22.3885 -0.4656 6.21485e-006 24.7975 7.23106e-006 -0.0001 12.643 3.4389 1.36684e-007 16.6492 1.42325e-007 2.2603 21.606 7.4023 13.4938 -4.51013 -11.9595 13.5163 -1.1332 -5.0146 23.1747 26.6764 14.4724 -0.0995 -28.05 -0.2431 -19.6444 -27.5893 -42.7836 0.0679 -23.3996 -0.1402 0.0936143 27.5592 -38.1138 0.7932 -9.069 2.5189 1.44477e-006 -1.18562e-005 2.38914e-006 -0.8272 -3.3923 0.5977 2.38542e-015 6.36111e-015 -1.59028e-015 -0.5649 -2.3158 0.4082 -4.51717e-006 1.06983e-005 -3.31115e-006 0.9159 -9.2044 0.2193 1.44477e-006 -1.18562e-005 2.38914e-006 0.0117 -4.1944 -0.0248 -0.012818 0.00232495 8.24534e-005 0.0071 -2.3249 -0.0142 1.93679e-006 -7.70351e-006 -4.58537e-006 0.6113 -8.7231 -2.0637 1.44477e-006 -1.18562e-005 2.38914e-006 -0.1927 -3.8059 -0.2383 -0.0160481 0.00298867 0.000853604 -0.1091 -2.1688 -0.1362 -7.00599e-006 7.79699e-006 7.87932e-006 -0.6151 -8.0947 -3.5641 1.44477e-006 -1.18562e-005 2.38914e-006 -0.4882 -2.341 -0.6462 -0.0125969 0.00312334 0.00282802 -0.3575 -1.7167 -0.4742 2.07468e-006 -6.14835e-007 3.02977e-006 -1.42 -1.8761 1.4223 1.44477e-006 -1.18562e-005 2.38914e-006 -1.1471 -3.4929 2.6334 2.38542e-015 6.36111e-015 -1.59028e-015 -0.823 -2.3 1.6571 -4.51717e-006 1.06983e-005 -3.31115e-006 -2.2603 21.606 7.4023 -14.7645 -4.21783 6.52344 -13.5187 -1.1334 -5.0155 -24.8663 25.9769 -8.99819 0.0994 -28.0499 -0.2431 19.4874 -26.952 42.3391 -0.0679 -23.3996 -0.1402 -1.19157 26.7996 39.0396 -0.7932 -9.0691 2.5189 2.19935e-006 -8.72402e-007 -2.24049e-006 0.8272 -3.3923 0.5977 1.59028e-015 -6.36111e-015 -2.38542e-015 0.565 -2.3158 0.4082 -8.18646e-006 -8.9032e-006 7.69509e-006 -0.916 -9.2044 0.2193 2.19935e-006 -8.72402e-007 -2.24049e-006 -0.0117 -4.1944 -0.0248 0.0129617 0.00231381 -8.54173e-005 -0.0071 -2.3249 -0.0142 -1.59028e-015 -3.18055e-015 -6.36111e-015 -0.6113 -8.7231 -2.0637 2.19935e-006 -8.72402e-007 -2.24049e-006 0.1927 -3.8059 -0.2383 0.0163273 0.00303701 -0.000873983 0.1091 -2.1688 -0.1362 1.27009e-006 -7.21445e-007 1.12235e-006 0.6151 -8.0947 -3.564 2.19935e-006 -8.72402e-007 -2.24049e-006 0.4882 -2.341 -0.6462 0.0145968 0.00367599 -0.00326633 0.3574 -1.7166 -0.4742 -7.55024e-006 1.51253e-006 3.50287e-006 1.4199 -1.8761 1.4221 2.19935e-006 -8.72402e-007 -2.24049e-006 1.1472 -3.4929 2.6336 1.59028e-015 -6.36111e-015 -2.38542e-015 0.8229 -2.3 1.6571 -8.18646e-006 -8.9032e-006 7.69509e-006 -9.412 3.9771 -0.7758 -150.059 -42.5502 -162.836 -0.7531 -40.938 -3.55271e-015 -16.8844 39.242 15.9884 0 -40.1986 3.55271e-015 -8.48039 12.3053 2.37428 2.13163e-014 -4.4182 9.239 2.85962e-006 1.85225e-005 -5.24642e-006 9.4119 3.9773 -0.7758 146.211 -52.7943 156.488 0.7532 -40.9383 -3.55271e-015 9.69447 15.2127 -2.24136 1.42109e-014 -40.1986 3.55271e-015 5.39907 22.2238 -7.88891 0 -4.4182 9.239 4.62153e-006 1.3728e-005 -2.28832e-006 
